<?xml version="1.0" encoding="UTF-8"?>
<svg width="22px" height="22px" viewBox="0 0 22 22" version="1.1" xmlns="http://www.w3.org/2000/svg" xmlns:xlink="http://www.w3.org/1999/xlink">
    <title>7CEF7511-F13E-4F28-BD28-EFB075BC66B6</title>
    <g id="WebUI" stroke="none" stroke-width="1" fill="none" fill-rule="evenodd" stroke-linecap="round" stroke-linejoin="round">
        <g id="Catergories" transform="translate(-1259.000000, -90.000000)" stroke="#A08241" stroke-width="1.5">
            <g id="Iconly/Light/Bag" transform="translate(1259.000000, 90.000000)">
                <g id="Bag" transform="translate(2.291667, 1.375000)">
                    <path d="M12.8459192,18.3333334 L5.19374526,18.3333334 C2.38291382,18.3333334 0.226544624,17.3180779 0.839054161,13.2318841 L1.5522502,7.69412666 C1.92982457,5.65522505 3.23035852,4.87490468 4.37147218,4.87490468 L13.7017545,4.87490468 C14.8596492,4.87490468 16.0846683,5.71395884 16.5209764,7.69412666 L17.2341725,13.2318841 C17.7543861,16.8565981 15.6567507,18.3333334 12.8459192,18.3333334 Z" id="Path_33955"></path>
                    <path d="M12.9717773,4.67353168 C12.9717773,2.4862987 11.1986747,0.713160433 9.01144169,0.713160433 L9.01144169,0.713160433 C7.95819085,0.70873307 6.94654753,1.12401046 6.20020713,1.86720174 C5.45386674,2.61039302 5.03432497,3.62027138 5.03432497,4.67353168 L5.03432497,4.67353168" id="Path_33956"></path>
                    <line x1="11.7299772" y1="8.80167815" x2="11.6880245" y2="8.80167815" id="Line_192"></line>
                    <line x1="6.38520217" y1="8.80167815" x2="6.34324946" y2="8.80167815" id="Line_193"></line>
                </g>
            </g>
        </g>
    </g>
</svg>