<?xml version="1.0" encoding="UTF-8"?>
<svg width="22px" height="22px" viewBox="0 0 22 22" version="1.1" xmlns="http://www.w3.org/2000/svg" xmlns:xlink="http://www.w3.org/1999/xlink">
    <title>8C6709FC-7A15-481D-BA84-410A0B87D7A9</title>
    <g id="WebUI" stroke="none" stroke-width="1" fill="none" fill-rule="evenodd" stroke-linecap="round" stroke-linejoin="round">
        <g id="Catergories" transform="translate(-1125.000000, -90.000000)" stroke="#A08241" stroke-width="1.5">
            <g id="Iconly/Light/Profile" transform="translate(1125.000000, 90.000000)">
                <g id="Profile" transform="translate(3.666667, 2.291667)">
                    <circle id="Ellipse_736" cx="6.94738329" cy="4.37986272" r="4.37986272"></circle>
                    <path d="M4.88498131e-15,14.8512587 C-0.00116197178,14.5433595 0.0676987423,14.2392247 0.201387832,13.9618612 C0.620914912,13.1228071 1.80398128,12.6781084 2.78567465,12.4767354 C3.493671,12.3256486 4.21144661,12.2247114 4.9336533,12.1746759 C6.27076873,12.0572216 7.61560731,12.0572216 8.95272273,12.1746759 C9.67486891,12.2252876 10.3926043,12.3262191 11.1007014,12.4767354 C12.0823948,12.6781084 13.2654611,13.0808544 13.6849882,13.9618612 C13.9538414,14.5272562 13.9538414,15.1836516 13.6849882,15.7490466 C13.2654611,16.6300535 12.0823948,17.0327995 11.1007014,17.2257819 C10.3935327,17.3831257 9.67550295,17.4869034 8.95272273,17.536232 C7.86442024,17.6284911 6.77103702,17.6453124 5.68041151,17.5865852 C5.42869526,17.5865852 5.18536955,17.5865852 4.9336533,17.536232 C4.21357874,17.4875112 3.49829187,17.3837245 2.79406519,17.2257819 C1.80398128,17.0327995 0.629305454,16.6300535 0.201387832,15.7490466 C0.0683817368,15.4684665 -0.000410618972,15.1617673 4.88498131e-15,14.8512587 Z" id="Path_33945"></path>
                </g>
            </g>
        </g>
    </g>
</svg>