<?xml version="1.0" encoding="UTF-8"?>
<svg width="17px" height="17px" viewBox="0 0 17 17" version="1.1" xmlns="http://www.w3.org/2000/svg" xmlns:xlink="http://www.w3.org/1999/xlink">
    <title>5FACB6DA-B751-4F7A-B52F-7945EDF0F9FB</title>
    <g id="WebUI" stroke="none" stroke-width="1" fill="none" fill-rule="evenodd" stroke-linecap="round" stroke-linejoin="round">
        <g id="Rhoda-Home" transform="translate(-1041.000000, -7469.000000)" stroke="#FFFFFF" stroke-width="1.5">
            <g id="Group-9" transform="translate(0.000000, 7162.000000)">
                <g id="Group-7" transform="translate(1041.000000, 260.000000)">
                    <g id="Iconly/Light/Location" transform="translate(0.000000, 47.000000)">
                        <g id="Location" transform="translate(2.479167, 1.416667)">
                            <path d="M0.523550727,5.94384061 C0.533755989,2.94009191 2.97704843,0.513345466 5.98079713,0.523518658 C8.98454583,0.533755989 11.4112923,2.97704843 11.4011191,5.98079713 L11.4011191,6.04239133 C11.3641305,7.99492758 10.2739131,9.79963773 8.93731889,11.210145 C8.17292088,12.0039241 7.31930576,12.7066581 6.39347829,13.3043479 C6.14591999,13.5184831 5.77871775,13.5184831 5.53115945,13.3043479 C4.15097368,12.4060006 2.93962961,11.271799 1.95253624,9.95362324 C1.07275713,8.80415148 0.57325105,7.40897933 0.523550727,5.96231887 L0.523550727,5.94384061 Z" id="Path_33958"></path>
                            <circle id="Ellipse_740" cx="5.96231887" cy="6.04855075" r="1.74311595"></circle>
                        </g>
                    </g>
                </g>
            </g>
        </g>
    </g>
</svg>