<?xml version="1.0" encoding="UTF-8"?>
<svg width="18px" height="16px" viewBox="0 0 18 16" version="1.1" xmlns="http://www.w3.org/2000/svg" xmlns:xlink="http://www.w3.org/1999/xlink">
    <title>9F0341B7-DFC4-4825-B7BC-1FBB45007B35</title>
    <g id="WebUI" stroke="none" stroke-width="1" fill="none" fill-rule="evenodd" stroke-linecap="round" stroke-linejoin="round">
        <g id="Rhoda-Home" transform="translate(-1041.000000, -7341.000000)" stroke="#FFFFFF" stroke-width="1.5">
            <g id="Group-9" transform="translate(0.000000, 7162.000000)">
                <g id="Message" transform="translate(1042.083333, 179.770833)">
                    <path d="M12.0869566,4.40255757 L8.71014497,7.12135553 C8.07110056,7.62237829 7.17527633,7.62237829 6.53623192,7.12135553 L3.1304348,4.40255757" id="Path_445"></path>
                    <path d="M3.86956524,0 L11.3333334,0 C12.4095158,0.0120704237 13.4338128,0.467026267 14.1676694,1.25891007 C14.901526,2.05079387 15.2808837,3.11048175 15.2173914,4.19117649 L15.2173914,9.35907933 C15.2808837,10.4397741 14.901526,11.499462 14.1676694,12.2913458 C13.4338128,13.0832296 12.4095158,13.5381854 11.3333334,13.5502558 L3.86956524,13.5502558 C1.55797102,13.5502558 0,11.6696932 0,9.35907933 L0,4.19117649 C0,1.88056267 1.55797102,0 3.86956524,0 Z" id="Rectangle_511"></path>
                </g>
            </g>
        </g>
    </g>
</svg>