<?xml version="1.0" encoding="UTF-8"?>
<svg width="33px" height="33px" viewBox="0 0 33 33" version="1.1" xmlns="http://www.w3.org/2000/svg" xmlns:xlink="http://www.w3.org/1999/xlink">
    <title>4728AC73-471A-412A-A1C6-C7AF65B0B02E</title>
    <g id="WebUI" stroke="none" stroke-width="1" fill="none" fill-rule="evenodd">
        <g id="Rhoda-Home" transform="translate(-1192.000000, -7580.000000)">
            <g id="Group-9" transform="translate(0.000000, 7162.000000)">
                <g id="Group-2" transform="translate(1044.000000, 418.000000)">
                    <g id="Group-16" transform="translate(148.000000, 0.000000)">
                        <circle id="Oval-Copy-3" fill="#E5E8ED" cx="16.5" cy="16.5" r="16.5"></circle>
                        <g id="1564504_email_letter_mail_message_icon" transform="translate(9.000000, 10.000000)" fill="#000000" fill-rule="nonzero">
                            <path d="M13.3333333,0 L2.66666667,0 C1.2,0 0,1.2 0,2.66666667 L0,9.33333333 C0,10.8 1.2,12 2.66666667,12 L13.3333333,12 C14.8,12 16,10.8 16,9.33333333 L16,2.66666667 C16,1.2 14.8,0 13.3333333,0 Z M14.4,3.86666667 L9.13333333,7.4 C8.8,7.6 8.4,7.73333333 8,7.73333333 C7.6,7.73333333 7.2,7.6 6.86666667,7.4 L1.6,3.86666667 C1.33333333,3.66666667 1.26666667,3.26666667 1.46666667,2.93333333 C1.66666667,2.66666667 2.06666667,2.6 2.4,2.8 L7.66666667,6.33333333 C7.86666667,6.46666667 8.2,6.46666667 8.4,6.33333333 L13.6666667,2.8 C14,2.6 14.4,2.66666667 14.6,3 C14.7333333,3.26666667 14.6666667,3.66666667 14.4,3.86666667 Z" id="email"></path>
                        </g>
                    </g>
                </g>
            </g>
        </g>
    </g>
</svg>