<?xml version="1.0" encoding="UTF-8"?>
<svg width="33px" height="33px" viewBox="0 0 33 33" version="1.1" xmlns="http://www.w3.org/2000/svg" xmlns:xlink="http://www.w3.org/1999/xlink">
    <title>8899AC33-261D-4934-9CD8-3C3414A2BE4C</title>
    <g id="WebUI" stroke="none" stroke-width="1" fill="none" fill-rule="evenodd">
        <g id="Rhoda-Home" transform="translate(-1044.000000, -7580.000000)">
            <g id="Group-9" transform="translate(0.000000, 7162.000000)">
                <g id="Group-11" transform="translate(1044.000000, 418.000000)">
                    <circle id="Oval" fill="#E6D1D3" cx="16.5" cy="16.5" r="16.5"></circle>
                    <g id="104498_facebook_icon" transform="translate(12.506674, 8.155000)" fill="#000000" fill-rule="nonzero">
                        <path d="M7.43465121,5.18087353 L4.90267025,5.18087353 L4.90267025,3.52026496 C4.90267025,2.89662596 5.31600083,2.75123163 5.60712068,2.75123163 C5.89757814,2.75123163 7.3939143,2.75123163 7.3939143,2.75123163 L7.3939143,0.00960463672 L4.93314014,0 C2.20144898,0 1.57979714,2.04479404 1.57979714,3.35334299 L1.57979714,5.18087353 L0,5.18087353 L0,8.0059615 L1.57979714,8.0059615 C1.57979714,11.6315463 1.57979714,16 1.57979714,16 L4.90267025,16 C4.90267025,16 4.90267025,11.588491 4.90267025,8.0059615 L7.14485614,8.0059615 L7.43465121,5.18087353 Z" id="Path"></path>
                    </g>
                </g>
            </g>
        </g>
    </g>
</svg>