<?xml version="1.0" encoding="UTF-8"?>
<svg width="33px" height="33px" viewBox="0 0 33 33" version="1.1" xmlns="http://www.w3.org/2000/svg" xmlns:xlink="http://www.w3.org/1999/xlink">
    <title>DB1F0C5A-766B-498D-AD36-BC19718AE4A8</title>
    <g id="WebUI" stroke="none" stroke-width="1" fill="none" fill-rule="evenodd">
        <g id="Rhoda-Home" transform="translate(-1093.000000, -7580.000000)">
            <g id="Group-9" transform="translate(0.000000, 7162.000000)">
                <g id="Group-2" transform="translate(1044.000000, 418.000000)">
                    <g id="Group-13" transform="translate(49.000000, 0.000000)">
                        <circle id="Oval-Copy" fill="#FDF7F6" cx="16.5" cy="16.5" r="16.5"></circle>
                        <g id="104501_twitter_bird_icon" transform="translate(9.248326, 10.017000)" fill="#000000" fill-rule="nonzero">
                            <path d="M15.9968777,1.53886696 C15.4088025,1.80026977 14.7759155,1.97659489 14.1118549,2.05550282 C14.7898786,1.64959784 15.3097617,1.00664435 15.5549283,0.239646301 C14.9207424,0.616001399 14.2186891,0.88909427 13.4708498,1.03651896 C12.8723835,0.398761053 12.0193336,0 11.0753609,0 C9.26307639,0 7.79370035,1.46937603 7.79370035,3.28198531 C7.79370035,3.53884198 7.82260079,3.78920418 7.87877804,4.02982465 C5.15109657,3.89279113 2.73255233,2.58642654 1.11380327,0.600739372 C0.831293401,1.08522756 0.669580856,1.64894839 0.669580856,2.25098666 C0.669580856,3.38946895 1.24888844,4.39416496 2.12953989,4.98256482 C1.59179697,4.96535445 1.08555228,4.81760504 0.64295349,4.57178898 C0.642628766,4.58542739 0.642628766,4.59939052 0.642628766,4.61335365 C0.642628766,6.20320228 1.77396713,7.52937503 3.27549083,7.83136834 C3.00012489,7.90605485 2.71014638,7.94632063 2.41075086,7.94632063 C2.19903082,7.94632063 1.99348054,7.92586302 1.79312584,7.88722086 C2.21104561,9.19098766 3.42291552,10.1401559 4.85884498,10.1664585 C3.73562472,11.0467852 2.32080232,11.5715392 0.782909527,11.5715392 C0.518259479,11.5715392 0.256856672,11.5559524 0,11.5254284 C1.45281511,12.4570615 3.17774891,13 5.03094869,13 C11.0678923,13 14.3687116,7.99925064 14.3687116,3.6622371 C14.3687116,3.52000799 14.3657891,3.37810361 14.3596193,3.2371734 C15.0006245,2.7754159 15.5572014,2.19708248 15.9968777,1.53886696 Z" id="Path"></path>
                        </g>
                    </g>
                </g>
            </g>
        </g>
    </g>
</svg>