<?xml version="1.0" encoding="UTF-8"?>
<svg width="95px" height="45px" viewBox="0 0 95 45" version="1.1" xmlns="http://www.w3.org/2000/svg" xmlns:xlink="http://www.w3.org/1999/xlink">
    <title>F4B8A646-1082-48CA-B63C-29BFD5D46850</title>
    <g id="WebUI" stroke="none" stroke-width="1" fill="none" fill-rule="evenodd" opacity="0.620729719">
        <g id="Rhoda-Home" transform="translate(-576.000000, -2718.000000)" fill="#394149" fill-rule="nonzero">
            <g id="Group-14" transform="translate(113.000000, 2702.000000)">
                <g id="logoipsum-logo-4" transform="translate(463.000000, 16.000000)">
                    <polygon id="Path" points="2.22044605e-15 27.01653 2.83292 27.01653 2.83292 40.90723 2.22044605e-15 40.90723"></polygon>
                    <path d="M4.476,36.14793 C4.47413,35.15023 4.76828,34.17433 5.32123,33.34383 C5.87418,32.51333 6.66107,31.86553 7.58233,31.48243 C8.50353,31.09933 9.51773,30.99813 10.49653,31.19163 C11.47533,31.38513 12.37473,31.86463 13.08083,32.56953 C13.78703,33.27433 14.26823,34.17283 14.46353,35.15123 C14.65893,36.12963 14.55963,37.14403 14.17823,38.06603 C13.79683,38.98793 13.15053,39.77603 12.32103,40.33053 C11.49163,40.88513 10.51633,41.18103 9.51863,41.18103 C8.85503,41.18863 8.19673,41.06373 7.58213,40.81353 C6.96755,40.56343 6.40906,40.19313 5.93942,39.72433 C5.46978,39.25563 5.09843,38.69783 4.84714,38.08363 C4.59585,37.46953 4.46967,36.81143 4.476,36.14793 Z M11.70933,36.14793 C11.69823,35.71723 11.56033,35.29933 11.31293,34.94663 C11.06553,34.59383 10.71963,34.32193 10.31843,34.16473 C9.91723,34.00753 9.47863,33.97223 9.05753,34.06303 C8.63633,34.15383 8.25133,34.36683 7.95053,34.67533 C7.64983,34.98383 7.44673,35.37423 7.36667,35.79763 C7.28662,36.22093 7.3332,36.65853 7.50053,37.05553 C7.66793,37.45253 7.94863,37.79143 8.30753,38.02973 C8.66653,38.26803 9.08773,38.39523 9.51863,38.39533 C9.81333,38.40363 10.10663,38.35073 10.37993,38.23993 C10.65323,38.12913 10.90063,37.96293 11.10653,37.75173 C11.31233,37.54053 11.47223,37.28903 11.57593,37.01303 C11.67973,36.73693 11.72513,36.44243 11.70933,36.14793 Z" id="Shape"></path>
                    <path d="M25.94943,31.38863 L25.94943,40.43503 C25.94943,43.63623 23.44703,44.98663 20.91633,44.98663 C20.02643,45.05283 19.13543,44.87283 18.34093,44.46643 C17.54643,44.06003 16.87913,43.44283 16.41203,42.68253 L18.84833,41.27553 C19.04163,41.66513 19.34753,41.98783 19.72633,42.20163 C20.10513,42.41543 20.53943,42.51063 20.97303,42.47473 C21.25823,42.52233 21.55063,42.50373 21.82763,42.42033 C22.10463,42.33703 22.35873,42.19123 22.57043,41.99413 C22.78203,41.79703 22.94563,41.55393 23.04853,41.28363 C23.15143,41.01333 23.19083,40.72303 23.16373,40.43503 L23.16373,39.55683 C22.83073,39.96663 22.40573,40.29213 21.92343,40.50703 C21.44113,40.72193 20.91493,40.82023 20.38753,40.79393 C19.10523,40.79393 17.87553,40.28453 16.96873,39.37783 C16.06203,38.47113 15.55263,37.24133 15.55263,35.95903 C15.55263,34.67673 16.06203,33.44703 16.96873,32.54033 C17.87553,31.63363 19.10523,31.12423 20.38753,31.12423 C20.91463,31.10013 21.44003,31.19943 21.92203,31.41413 C22.40403,31.62893 22.82923,31.95323 23.16373,32.36123 L23.16373,31.41693 L25.94943,31.38863 Z M23.16373,35.95903 C23.18263,35.49983 23.06363,35.04543 22.82223,34.65423 C22.58073,34.26313 22.22783,33.95313 21.80883,33.76423 C21.38983,33.57523 20.92383,33.51593 20.47083,33.59393 C20.01783,33.67183 19.59853,33.88353 19.26683,34.20163 C18.93503,34.51983 18.70603,34.92993 18.60923,35.37923 C18.51233,35.82853 18.55213,36.29663 18.72343,36.72313 C18.89473,37.14973 19.18963,37.51523 19.57033,37.77283 C19.95103,38.03053 20.40003,38.16833 20.85963,38.16873 C21.15973,38.18993 21.46083,38.14813 21.74363,38.04583 C22.02653,37.94353 22.28483,37.78323 22.50193,37.57503 C22.71893,37.36683 22.89003,37.11543 23.00403,36.83713 C23.11803,36.55883 23.17243,36.25973 23.16373,35.95903 Z" id="Shape"></path>
                    <path d="M27.58313,36.14793 C27.58123,35.15023 27.87543,34.17433 28.42833,33.34383 C28.98133,32.51333 29.76823,31.86553 30.68943,31.48243 C31.61063,31.09933 32.62483,30.99813 33.60363,31.19163 C34.58243,31.38513 35.48183,31.86463 36.18803,32.56953 C36.89413,33.27433 37.37533,34.17283 37.57073,35.15123 C37.76603,36.12963 37.66673,37.14403 37.28533,38.06603 C36.90393,38.98793 36.25763,39.77603 35.42823,40.33053 C34.59873,40.88513 33.62343,41.18103 32.62573,41.18103 C31.96223,41.18863 31.30383,41.06373 30.68923,40.81353 C30.07463,40.56343 29.51613,40.19313 29.04653,39.72433 C28.57693,39.25563 28.20553,38.69783 27.95423,38.08363 C27.70293,37.46953 27.57673,36.81143 27.58313,36.14793 Z M34.81653,36.14793 C34.80533,35.71723 34.66743,35.29933 34.42003,34.94663 C34.17263,34.59383 33.82673,34.32193 33.42553,34.16473 C33.02443,34.00753 32.58583,33.97223 32.16463,34.06303 C31.74343,34.15383 31.35843,34.36683 31.05763,34.67533 C30.75693,34.98383 30.55383,35.37423 30.47373,35.79763 C30.39373,36.22093 30.44033,36.65853 30.60763,37.05553 C30.77503,37.45253 31.05573,37.79143 31.41463,38.02973 C31.77363,38.26803 32.19483,38.39523 32.62573,38.39533 C32.91893,38.40093 33.21013,38.34613 33.48123,38.23413 C33.75223,38.12213 33.99733,37.95553 34.20113,37.74463 C34.40493,37.53383 34.56303,37.28313 34.66573,37.00843 C34.76833,36.73373 34.81323,36.44073 34.79763,36.14793 L34.81653,36.14793 Z" id="Shape"></path>
                    <path d="M38.98093,28.83903 C38.98093,28.49913 39.08173,28.16683 39.27053,27.88423 C39.45943,27.60163 39.72783,27.38133 40.04183,27.25123 C40.35593,27.12113 40.70143,27.08713 41.03483,27.15343 C41.36823,27.21973 41.67443,27.38343 41.91483,27.62373 C42.15523,27.86413 42.31883,28.17033 42.38513,28.50373 C42.45153,28.83713 42.41743,29.18273 42.28743,29.49673 C42.15733,29.81073 41.93703,30.07923 41.65443,30.26803 C41.37173,30.45683 41.03953,30.55763 40.69953,30.55763 C40.24453,30.55523 39.80883,30.37333 39.48703,30.05153 C39.16523,29.72983 38.98343,29.29413 38.98093,28.83903 Z M39.27363,31.38863 L42.10653,31.38863 L42.10653,40.90723 L39.27363,40.90723 L39.27363,31.38863 Z" id="Shape"></path>
                    <path d="M54.45793,36.14793 C54.49223,36.77713 54.40183,37.40693 54.19183,38.00103 C53.98173,38.59513 53.65633,39.14183 53.23413,39.60963 C52.81193,40.07743 52.30143,40.45713 51.73193,40.72683 C51.16243,40.99653 50.54523,41.15093 49.91583,41.18113 C49.38743,41.20643 48.85983,41.11563 48.37043,40.91493 C47.88093,40.71423 47.44143,40.40863 47.08293,40.01963 L47.08293,44.74113 L44.25003,44.74113 L44.25003,31.38863 L47.08293,31.38863 L47.08293,32.28573 C47.44143,31.89673 47.88093,31.59113 48.37043,31.39043 C48.85983,31.18973 49.38743,31.09893 49.91583,31.12423 C50.54443,31.15443 51.16083,31.30853 51.72963,31.57763 C52.29853,31.84683 52.80863,32.22563 53.23063,32.69243 C53.65273,33.15923 53.97833,33.70473 54.18893,34.29773 C54.39963,34.89073 54.49103,35.51953 54.45793,36.14793 Z M51.62503,36.14793 C51.61383,35.70473 51.47283,35.27453 51.21953,34.91063 C50.96623,34.54683 50.61183,34.26513 50.20013,34.10073 C49.78843,33.93623 49.33743,33.89613 48.90323,33.98543 C48.46893,34.07463 48.07033,34.28933 47.75683,34.60283 C47.44333,34.91633 47.22873,35.31483 47.13943,35.74913 C47.05023,36.18343 47.09033,36.63433 47.25473,37.04603 C47.41923,37.45773 47.70083,37.81223 48.06473,38.06543 C48.42863,38.31873 48.85883,38.45973 49.30203,38.47093 C49.61133,38.49063 49.92123,38.44383 50.21103,38.33383 C50.50073,38.22373 50.76353,38.05293 50.98183,37.83293 C51.20003,37.61283 51.36873,37.34863 51.47643,37.05803 C51.58403,36.76743 51.62833,36.45713 51.60613,36.14793 L51.62503,36.14793 Z" id="Shape"></path>
                    <path d="M63.27783,38.05543 C63.27783,40.24623 61.38923,41.18103 59.31173,41.18103 C58.48183,41.25453 57.64893,41.07793 56.92023,40.67403 C56.19163,40.27013 55.60043,39.65743 55.22293,38.91473 L57.69703,37.50773 C57.79743,37.85123 58.01243,38.15003 58.30613,38.35443 C58.59993,38.55883 58.95473,38.65663 59.31173,38.63143 C60.00113,38.63143 60.34103,38.41423 60.34103,38.03653 C60.34103,36.98833 55.61953,37.54553 55.61953,34.25933 C55.61953,32.18183 57.37593,31.13363 59.39673,31.13363 C60.14243,31.11103 60.88063,31.28813 61.53483,31.64683 C62.18903,32.00543 62.73533,32.53253 63.11733,33.17333 L60.63383,34.47653 C60.52413,34.22713 60.34433,34.01493 60.11633,33.86573 C59.88833,33.71653 59.62203,33.63673 59.34953,33.63603 C58.85853,33.63603 58.55633,33.82493 58.55633,34.17433 C58.59413,35.26023 63.27783,34.53313 63.27783,38.05543 Z" id="Path"></path>
                    <path d="M73.70293,31.38863 L73.70293,40.90723 L70.86993,40.90723 L70.86993,40.01963 C70.54043,40.41403 70.12223,40.72483 69.64953,40.92673 C69.17693,41.12863 68.66313,41.21573 68.15033,41.18113 C66.26173,41.18113 64.59033,39.81183 64.59033,37.23393 L64.59033,31.38863 L67.42323,31.38863 L67.42323,36.81843 C67.39833,37.04983 67.42533,37.28383 67.50213,37.50353 C67.57893,37.72323 67.70363,37.92303 67.86733,38.08853 C68.03093,38.25403 68.22943,38.38093 68.44823,38.46013 C68.66703,38.53943 68.90083,38.56883 69.13243,38.54653 C70.17123,38.54653 70.89833,37.94213 70.89833,36.59183 L70.89833,31.38863 L73.70293,31.38863 Z" id="Path"></path>
                    <path d="M90.07713,35.07133 L90.07713,40.90713 L87.24413,40.90713 L87.24413,35.31693 C87.24413,34.37263 86.78143,33.74933 85.87493,33.74933 C84.96843,33.74933 84.38293,34.41983 84.38293,35.54353 L84.38293,40.90713 L81.55003,40.90713 L81.55003,35.31693 C81.55003,34.37263 81.09673,33.74933 80.18073,33.74933 C79.26483,33.74933 78.69823,34.41983 78.69823,35.54353 L78.69823,40.90713 L75.86533,40.90713 L75.86533,31.38863 L78.69823,31.38863 L78.69823,32.26683 C78.99433,31.87893 79.38263,31.57123 79.82793,31.37173 C80.27323,31.17213 80.76133,31.08703 81.24783,31.12423 C81.73643,31.10043 82.22293,31.20373 82.65973,31.42373 C83.09663,31.64383 83.46903,31.97333 83.74083,32.38013 C84.05683,31.95483 84.47553,31.61653 84.95773,31.39693 C85.43993,31.17733 85.96993,31.08343 86.49813,31.12423 C88.65123,31.12423 90.07713,32.69173 90.07713,35.07133 Z" id="Path"></path>
                    <path d="M92.49463,31.33203 C93.66283,31.33203 94.60983,30.38493 94.60983,29.21673 C94.60983,28.04853 93.66283,27.10153 92.49463,27.10153 C91.32643,27.10153 90.37933,28.04853 90.37933,29.21673 C90.37933,30.38493 91.32643,31.33203 92.49463,31.33203 Z" id="Path"></path>
                    <path d="M32.05913,19.81153 C37.52993,19.81153 41.96483,15.37653 41.96483,9.90573 C41.96483,4.43496 37.52993,-1.77635684e-15 32.05913,-1.77635684e-15 C26.58833,-1.77635684e-15 22.15333,4.43496 22.15333,9.90573 C22.15333,15.37653 26.58833,19.81153 32.05913,19.81153 Z" id="Path"></path>
                    <path d="M54.20303,19.81153 C59.67383,19.81153 64.10873,15.37653 64.10873,9.90573 C64.10873,4.43496 59.67383,-1.77635684e-15 54.20303,-1.77635684e-15 C48.73223,-1.77635684e-15 44.29723,4.43496 44.29723,9.90573 C44.29723,15.37653 48.73223,19.81153 54.20303,19.81153 Z" id="Path"></path>
                    <polygon id="Path" points="19.82093 -1.77635684e-15 0.01889 -1.77635684e-15 0.01889 19.80203 19.82093 19.80203"></polygon>
                </g>
            </g>
        </g>
    </g>
</svg>