<?xml version="1.0" encoding="UTF-8"?>
<svg width="114px" height="26px" viewBox="0 0 114 26" version="1.1" xmlns="http://www.w3.org/2000/svg" xmlns:xlink="http://www.w3.org/1999/xlink">
    <title>DC46D1B0-4332-4E18-B4A7-615514592F24</title>
    <g id="WebUI" stroke="none" stroke-width="1" fill="none" fill-rule="evenodd" opacity="0.620729719">
        <g id="Rhoda-Home" transform="translate(-344.000000, -2728.000000)" fill="#394149" fill-rule="nonzero">
            <g id="Group-14" transform="translate(113.000000, 2702.000000)">
                <g id="logoipsum-logo-11" transform="translate(231.000000, 26.000000)">
                    <path d="M0,25.65 L25.65002,25.65 L25.65002,3.5995086e-08 L0,3.5995086e-08 L0,25.65 Z M20.71302,10.357 L15.29302,10.357 L15.29302,4.93700004 L20.71302,4.93700004 L20.71302,10.357 Z M4.936,4.93700004 L10.35902,4.93700004 L10.35902,15.293 L20.71302,15.293 L20.71302,20.713 L4.936,20.713 L4.936,4.93700004 Z M42.35302,3.5995086e-08 C39.81642,3.5995086e-08 37.33682,0.752180036 35.22782,2.16141004 C33.11872,3.57064004 31.47492,5.57363004 30.50422,7.91710004 C29.53352,10.2606 29.27962,12.8392 29.77442,15.327 C30.26932,17.8148 31.49072,20.1 33.28432,21.8936 C35.07792,23.6873 37.36312,24.9087 39.85092,25.4036 C42.33882,25.8984 44.91742,25.6445 47.26092,24.6738 C49.60442,23.7031 51.60732,22.0593 53.01662,19.9502 C54.42582,17.8411 55.17802,15.3615 55.17802,12.825 C55.17402,9.42480004 53.82152,6.16504004 51.41722,3.76075004 C49.01292,1.35645004 45.75322,0.003970036 42.35302,3.5995086e-08 L42.35302,3.5995086e-08 Z M42.35302,20.713 C40.79292,20.713 39.26782,20.2504 37.97062,19.3836 C36.67352,18.5169 35.66242,17.285 35.06542,15.8436 C34.46842,14.4023 34.31222,12.8163 34.61652,11.2861 C34.92092,9.75600004 35.67222,8.35050004 36.77532,7.24734004 C37.87852,6.14419004 39.28402,5.39293004 40.81412,5.08857004 C42.34422,4.78421004 43.93022,4.94042004 45.37162,5.53744004 C46.81292,6.13446004 48.04492,7.14549004 48.91162,8.44270004 C49.77842,9.73980004 50.24102,11.2649 50.24102,12.825 C50.23782,14.9161 49.40572,16.9206 47.92712,18.3992 C46.44852,19.8778 44.44402,20.7098 42.35302,20.713 L42.35302,20.713 Z M101.07202,0 C98.53502,0 96.05572,0.751810036 93.94652,2.16092004 C91.83732,3.57003004 90.19342,5.57295004 89.22252,7.91640004 C88.25172,10.2598 87.99752,12.8386 88.49232,15.3264 C88.98702,17.8143 90.20842,20.0996 92.00202,21.8933 C93.79552,23.687 96.08072,24.9086 98.56902,25.4035 C101.05602,25.8984 103.63502,25.6445 105.97902,24.6739 C108.32202,23.7032 110.32502,22.0594 111.73402,19.9503 C113.14402,17.8412 113.89602,15.3616 113.89602,12.825 C113.89202,9.42500004 112.54002,6.16536004 110.13602,3.76110004 C107.73202,1.35683004 104.47202,0.004240036 101.07202,0 L101.07202,0 Z M101.07202,20.7130001 C99.51202,20.7132 97.98702,20.2507 96.68942,19.3841 C95.39212,18.5175 94.38092,17.2856 93.78372,15.8443 C93.18652,14.403 93.03022,12.8169 93.33442,11.2867 C93.63872,9.75660004 94.38992,8.35100004 95.49302,7.24770004 C96.59612,6.14444004 98.00202,5.39308004 99.53202,5.08864004 C101.06202,4.78420004 102.64802,4.94035004 104.08902,5.53735004 C105.53102,6.13434004 106.76302,7.14536004 107.63002,8.44260004 C108.49602,9.73980004 108.95902,11.2649 108.95902,12.825 C108.95602,14.9159 108.12402,16.9202 106.64502,18.3988 C105.16702,19.8774 103.16302,20.7096 101.07202,20.7130001 L101.07202,20.7130001 Z M71.71202,3.5995086e-08 C69.17542,3.5995086e-08 66.69582,0.752180036 64.58682,2.16141004 C62.47772,3.57064004 60.83392,5.57363004 59.86322,7.91710004 C58.89252,10.2606 58.63862,12.8392 59.13342,15.327 C59.62832,17.8148 60.84972,20.1 62.64332,21.8936 C64.43692,23.6873 66.72212,24.9087 69.20992,25.4036 C71.69772,25.8984 74.27642,25.6445 76.61992,24.6738 C78.96342,23.7031 80.96632,22.0593 82.37562,19.9502 C83.78482,17.8411 84.53702,15.3615 84.53702,12.825 C84.53302,9.42480004 83.18052,6.16504004 80.77622,3.76075004 C78.37192,1.35645004 75.11222,0.003970036 71.71202,3.5995086e-08 Z M71.71202,20.713001 C70.25842,20.7137 68.83302,20.3128 67.59292,19.5545 C66.35292,18.7962 65.34642,17.7101 64.68472,16.4159 C64.02312,15.1217 63.73182,13.6698 63.84322,12.2206 C63.95462,10.7713 64.46422,9.38100004 65.31592,8.20310004 C66.16762,7.02526004 67.32822,6.10561004 68.66952,5.54571004 C70.01092,4.98580004 71.48092,4.80742004 72.91722,5.03024004 C74.35362,5.25307004 75.70042,5.86843004 76.80912,6.80842004 C77.91782,7.74840004 78.74522,8.97650004 79.20002,10.357 L71.71202,10.357 L71.71202,15.293 L79.20002,15.293 C78.67912,16.8683 77.67552,18.2397 76.33142,19.2125 C74.98742,20.1854 73.37122,20.7103 71.71202,20.713001 L71.71202,20.713001 Z" id="Shape"></path>
                </g>
            </g>
        </g>
    </g>
</svg>